# xmcd
#
# Track frame offsets:
#	150
#	21120
#	45124
#	59594
#	79395
#	96207
#	111720
#	134508
#	147751
#	162875
#	178164
#	198299
#
# Disc length: 2942 seconds
# Revision: 0
# Processed by: cddbd v1.5.2PL0 Copyright (c) Steve Scherf et al.
# Submitted via: dBpowerAMP V12.0
#
DISCID=a90b7c0c
DTITLE=André Abujamra - Mafaro
DYEAR=2010
DGENRE=Brasil
TTITLE0=Origem
TTITLE1=Imaginação
TTITLE2=Lexotan
TTITLE3=A Pedra tem vida
TTITLE4=Uma a uma
TTITLE5=O amor é dificil
TTITLE6=Tem luz na cauda da flecha
TTITLE7=Logun edé
TTITLE8=Dauloudaram
TTITLE9=Abuxiscuruma
TTITLE10=Duvião
TTITLE11=Mafaro
EXTD=
EXTT0=
EXTT1=
EXTT2=
EXTT3=
EXTT4=
EXTT5=
EXTT6=
EXTT7=
EXTT8=
EXTT9=
EXTT10=
EXTT11=
PLAYORDER=
